<svg width="22" height="24" viewBox="0 0 22 24" fill="none" xmlns="http://www.w3.org/2000/svg">
    <path d="M22 8.4V22.8C22.0001 22.9576 21.9686 23.1137 21.9073 23.2594C21.8459 23.4051 21.756 23.5375 21.6425 23.649C21.5289 23.7604 21.3941 23.8487 21.2457 23.909C21.0973 23.9692 20.9383 24.0001 20.7778 24H14.6667C14.3425 24 14.0316 23.8736 13.8024 23.6485C13.5732 23.4235 13.4444 23.1183 13.4444 22.8V15.6H8.55556V22.8C8.55649 22.9579 8.52565 23.1145 8.46483 23.2607C8.40401 23.4069 8.31439 23.5399 8.20111 23.652C8.08691 23.7632 7.95147 23.8512 7.80255 23.9109C7.65364 23.9706 7.49419 24.0009 7.33333 24H1.22222C0.89807 24 0.587191 23.8736 0.35798 23.6485C0.128769 23.4235 0 23.1183 0 22.8V8.4C0 8.21371 0.044178 8.02997 0.129034 7.86334C0.21389 7.69672 0.337093 7.55178 0.488888 7.44L10.2667 0.239998C10.4782 0.0842113 10.7355 0 11 0C11.2645 0 11.5218 0.0842113 11.7333 0.239998L21.5111 7.44C21.6629 7.55178 21.7861 7.69672 21.871 7.86334C21.9558 8.02997 22 8.21371 22 8.4Z" fill="white"/>
</svg>
