<svg width="46" height="46" viewBox="0 1 46 46" fill="none" xmlns="http://www.w3.org/2000/svg">
    <path d="M23 46C35.7025 46 46 35.7025 46 23C46 10.2975 35.7025 0 23 0C10.2975 0 0 10.2975 0 23C0 35.7025 10.2975 46 23 46Z" fill="#0162BA"/>
    <path d="M34 19.4V33.8C34.0001 33.9576 33.9686 34.1137 33.9073 34.2594C33.8459 34.4051 33.756 34.5375 33.6425 34.649C33.5289 34.7604 33.3941 34.8487 33.2457 34.909C33.0973 34.9692 32.9383 35.0001 32.7778 35H26.6667C26.3425 35 26.0316 34.8736 25.8024 34.6485C25.5732 34.4235 25.4444 34.1183 25.4444 33.8V26.6H20.5556V33.8C20.5565 33.9579 20.5257 34.1145 20.4648 34.2607C20.404 34.4069 20.3144 34.5399 20.2011 34.652C20.0869 34.7632 19.9515 34.8512 19.8026 34.9109C19.6536 34.9706 19.4942 35.0009 19.3333 35H13.2222C12.8981 35 12.5872 34.8736 12.358 34.6485C12.1288 34.4235 12 34.1183 12 33.8V19.4C12 19.2137 12.0442 19.03 12.129 18.8633C12.2139 18.6967 12.3371 18.5518 12.4889 18.44L22.2667 11.24C22.4782 11.0842 22.7355 11 23 11C23.2645 11 23.5218 11.0842 23.7333 11.24L33.5111 18.44C33.6629 18.5518 33.7861 18.6967 33.871 18.8633C33.9558 19.03 34 19.2137 34 19.4Z" fill="#D8F6FF"/>
</svg>
