<svg width="172" height="22" viewBox="0 0 172 22" fill="none" xmlns="http://www.w3.org/2000/svg">
<path fill-rule="evenodd" clip-rule="evenodd" d="M0 22H172V0H0V22ZM0.593103 21.3H171.307V0.701H0.593103V21.3ZM82.4415 11.1001C82.4415 11.9001 82.1449 13.0001 81.3531 13.9001C80.5633 14.8001 79.3761 15.1001 78.4875 15.1001H78.3876C77.5978 15.1001 76.4106 14.8001 75.5219 13.9001C74.7311 13.0001 74.4336 11.9001 74.4336 11.1001V11.0001C74.4336 10.2001 74.7311 9.1001 75.5219 8.2001C76.3127 7.3001 77.499 7.0001 78.3876 7.0001H78.4875C79.2783 7.0001 80.4645 7.3001 81.3531 8.2001C82.1449 9.1001 82.4415 10.2001 82.4415 11.0001V11.1001ZM82.6392 7.3001C81.1564 6.0001 79.0806 6.0001 78.4875 6.0001H78.3876C77.7955 6.0001 75.8185 6.0001 74.2369 7.3001C72.7541 8.6001 72.4566 10.0001 72.4566 11.0001V11.1001C72.4566 12.1001 72.7541 13.5001 74.2369 14.8001C75.7196 16.1001 77.7955 16.1001 78.3876 16.1001H78.4875C79.0806 16.1001 81.0576 16.1001 82.6392 14.8001C84.1219 13.5001 84.4185 12.1001 84.4185 11.1001V11.0001C84.4185 10.0001 84.1219 8.6001 82.6392 7.3001ZM67.2182 6.1002C67.318 6.1002 67.318 6.2002 67.2182 6.2002C66.4274 6.5002 66.3295 7.3002 66.3295 7.7002V14.3002C66.3295 14.7002 66.4274 15.5002 67.2182 15.8002C67.318 15.8002 67.318 15.9002 67.2182 15.9002H63.7584C63.6596 15.9002 63.6596 15.8002 63.7584 15.8002C64.5492 15.5002 64.6481 14.7002 64.6481 14.3002V11.1002H58.2228V14.3002C58.2228 14.7002 58.3216 15.5002 59.1124 15.8002C59.2113 15.8002 59.2113 15.9002 59.1124 15.9002H55.6527C55.5538 15.9002 55.5538 15.8002 55.6527 15.8002C56.4445 15.5002 56.5423 14.7002 56.5423 14.3002V7.7002C56.5423 7.3002 56.4445 6.5002 55.6527 6.2002C55.5538 6.2002 55.5538 6.1002 55.6527 6.1002H59.1124C59.2113 6.1002 59.2113 6.2002 59.1124 6.2002C58.3216 6.5002 58.2228 7.3002 58.2228 7.7002V10.2002H64.6481V7.7002C64.6481 7.3002 64.5492 6.5002 63.7584 6.2002C63.6596 6.2002 63.6596 6.1002 63.7584 6.1002H67.2182ZM33.4111 10.7002C32.9864 10.5158 32.2994 10.407 31.6497 10.304L31.6497 10.304L31.6496 10.304L31.6496 10.304C31.2424 10.2395 30.8497 10.1773 30.5454 10.1002C29.7546 10.0002 28.9628 9.8002 28.5684 9.4002C28.172 9.0002 28.0742 8.4002 28.4686 7.8002C28.6663 7.5002 29.0627 7.1002 29.7546 7.0002C30.2489 6.9002 31.0397 6.8002 32.0282 7.1002C33.026 7.41103 33.7259 8.02376 34.1276 8.37536C34.2428 8.47623 34.3335 8.55561 34.3996 8.6002C34.4994 8.7002 34.5973 8.7002 34.4994 8.5002C34.4994 8.4002 34.3996 6.7002 34.3008 6.4002C34.3008 6.2002 34.2029 6.2002 34.0052 6.3002C33.6299 6.42653 33.3344 6.35337 32.8437 6.23194C32.5575 6.16112 32.205 6.07387 31.7316 6.0002C30.4456 5.8002 29.3582 5.9002 28.5684 6.2002C27.9743 6.4002 27.2834 6.8002 26.887 7.6002C26.4916 8.3002 26.3927 9.3002 26.9858 10.2002C27.4801 10.9002 28.0742 11.5002 30.5454 11.9002C32.7187 12.1871 33.0849 12.5654 33.2856 12.7729L33.3122 12.8002C33.6088 13.1002 33.6088 13.8002 33.4111 14.2002C33.3122 14.5002 32.818 14.9002 32.3237 15.0002C31.1375 15.3002 30.2489 15.2002 29.2604 14.9002C28.0742 14.5002 26.9858 13.7002 26.5914 13.3002C26.5914 13.3002 26.4916 13.2002 26.4916 13.3002C26.4916 13.4652 26.5218 14.1142 26.5489 14.6982L26.549 14.6991L26.549 14.6998L26.549 14.7C26.5712 15.1771 26.5914 15.6103 26.5914 15.7002C26.5914 15.7972 26.5914 15.8472 26.614 15.8615C26.6379 15.8767 26.6873 15.8517 26.7891 15.8002C27.3812 15.4002 28.2719 15.6002 29.2604 15.9002C30.4456 16.2002 31.6318 16.3002 32.818 16.0002C33.6088 15.8002 34.3996 15.3002 34.8939 14.5002C35.3881 13.8002 35.3881 12.6002 34.9937 11.9002C34.5973 11.3002 34.0052 10.9002 33.4111 10.7002ZM44.5819 14.7002C45.7671 15.3002 47.0532 15.1002 48.0417 14.7002C48.8325 14.4002 49.5244 13.9002 50.0187 13.4002C50.1175 13.3002 50.2154 13.3002 50.0187 13.5002C49.9725 13.6851 49.9268 13.9983 49.8811 14.3113C49.8279 14.6752 49.7748 15.0389 49.7211 15.2002C49.7211 15.2621 49.6836 15.2857 49.6316 15.3184C49.5996 15.3385 49.5621 15.3621 49.5244 15.4002C49.3267 15.5002 48.7326 15.8002 48.1405 15.9002C46.8555 16.2002 45.2729 16.2002 44.1865 15.8002C43.0991 15.4002 41.8131 14.7002 40.9244 13.3002C40.0338 11.9002 40.2325 9.8002 41.0223 8.6002C42.1106 7.0002 43.198 6.5002 44.2844 6.2002C45.4706 5.9002 46.7556 5.9002 47.844 6.1002C48.3382 6.2002 49.2269 6.5002 49.4246 6.6002C49.5244 6.6002 49.6233 6.7002 49.6233 6.8002C49.6233 6.8002 49.821 8.2002 49.821 8.4002C49.821 8.6002 49.7211 8.6002 49.6233 8.5002C49.129 7.9002 48.3382 7.4002 47.7441 7.2002C46.7556 6.9002 45.5704 6.9002 44.7786 7.3002L44.7774 7.30072C44.0869 7.60055 43.3954 7.90078 42.8016 8.9002C41.9129 10.4002 42.2095 12.1002 42.6049 12.8002C42.6558 12.8688 42.7095 12.9521 42.7701 13.0461C43.063 13.5001 43.5164 14.2031 44.5819 14.7002ZM151.439 6.2002C151.538 6.2002 151.538 6.1002 151.439 6.1002H147.979C147.88 6.1002 147.88 6.2002 147.979 6.2002C148.77 6.5002 148.869 7.3002 148.869 7.7002V14.3002C148.869 14.7002 148.77 15.5002 147.979 15.8002C147.88 15.8002 147.88 15.9002 147.979 15.9002H151.439C151.538 15.9002 151.538 15.8002 151.439 15.8002C150.648 15.5002 150.549 14.7002 150.549 14.3002V7.7002C150.549 7.3002 150.648 6.5002 151.439 6.2002ZM135.129 6.1001H141.06C141.554 6.1001 142.246 6.0001 142.839 5.8001C142.938 5.8001 143.037 5.8001 142.74 5.9001C142.641 6.05012 142.419 6.35019 142.196 6.65024L142.196 6.65039L142.196 6.65077L142.196 6.65121C141.974 6.95084 141.752 7.25029 141.653 7.4001C141.592 7.4619 141.568 7.44731 141.536 7.42715C141.516 7.41469 141.493 7.4001 141.455 7.4001C141.429 7.4001 141.397 7.37963 141.349 7.34939C141.213 7.26385 140.952 7.1001 140.368 7.1001H138.292V14.3001C138.292 14.7001 138.391 15.5001 139.182 15.8001C139.28 15.8001 139.28 15.9001 139.182 15.9001H135.722C135.623 15.9001 135.623 15.8001 135.722 15.8001C136.513 15.5001 136.611 14.7001 136.611 14.3001V7.1001H134.14C133.646 7.1001 133.349 7.1001 132.756 7.4001C132.559 7.5001 132.559 7.4001 132.657 7.3001L133.844 5.7001C133.905 5.6383 133.928 5.65289 133.96 5.67305C133.98 5.68551 134.004 5.7001 134.041 5.7001C134.14 5.8001 134.536 6.1001 135.129 6.1001ZM97.8619 14.2002C97.763 14.3002 96.9732 15.0002 95.786 15.0002H92.4251V7.7002C92.4251 7.2002 92.5249 6.6002 93.4136 6.3002C93.5134 6.3002 93.5134 6.2002 93.4136 6.2002H89.855C89.7561 6.2002 89.7561 6.3002 89.855 6.3002C90.6458 6.6002 90.7446 7.4002 90.7446 7.8002V14.4002C90.7446 14.8002 90.6458 15.6002 89.855 15.9002C89.7561 15.9002 89.7561 16.0002 89.855 16.0002H95.6872C96.1814 16.0002 96.6757 16.1002 97.0711 16.3002C97.113 16.3002 97.1371 16.3002 97.1585 16.2926C97.1877 16.2822 97.2118 16.2578 97.2688 16.2002C97.3189 16.0988 97.4964 15.663 97.672 15.2319L97.6721 15.2316L97.6723 15.2311C97.8428 14.8125 98.0114 14.3987 98.0596 14.3002C98.0311 14.2711 98.0109 14.242 97.9942 14.2179C97.9533 14.159 97.9327 14.1293 97.8619 14.2002ZM164.388 14.6999C165.18 14.3999 165.871 13.8999 166.365 13.3999C166.465 13.2999 166.563 13.2999 166.365 13.4999C166.32 13.6836 166.275 13.9938 166.229 14.3047L166.229 14.3053C166.176 14.6712 166.123 15.0378 166.069 15.1999C166.069 15.2619 166.031 15.2855 165.979 15.3183C165.946 15.3384 165.909 15.3619 165.871 15.3999C165.674 15.4999 165.08 15.7999 164.488 15.8999C163.203 16.1999 161.62 16.1999 160.534 15.7999C159.446 15.3999 158.161 14.6999 157.272 13.2999C156.381 11.8999 156.58 9.7999 157.37 8.5999C158.457 6.9999 159.545 6.4999 160.632 6.1999C161.818 5.8999 163.103 5.8999 164.191 6.0999C164.686 6.1999 165.574 6.4999 165.772 6.5999C165.871 6.5999 165.971 6.6999 165.971 6.7999C165.971 6.7999 166.168 8.1999 166.168 8.3999C166.168 8.5999 166.069 8.5999 165.971 8.4999C165.476 7.8999 164.686 7.3999 164.092 7.1999C163.103 6.8999 161.917 6.8999 161.126 7.2999C160.434 7.5999 159.743 7.8999 159.149 8.8999C158.26 10.3999 158.557 12.0999 158.951 12.7999C159.003 12.8689 159.057 12.9528 159.118 13.0474L159.118 13.0476C159.412 13.5017 159.865 14.2035 160.928 14.6999C162.115 15.2999 163.4 15.0999 164.388 14.6999ZM105.078 12.2998L107.649 7.5998L110.12 12.2998H105.078ZM113.48 14.6998C113.184 14.1998 108.637 6.0998 108.637 6.0998H106.956C106.956 6.0998 106.858 6.0998 106.956 6.1998C107.252 6.4998 107.155 6.7998 107.055 7.0998C106.983 7.31658 105.106 10.6664 103.883 12.8477L103.882 12.8497L103.882 12.8501C103.413 13.6863 103.041 14.3504 102.904 14.5998C102.41 15.4991 102.014 15.6995 101.816 15.7996L101.816 15.7998C101.618 15.8998 101.718 15.9998 101.816 15.9998H103.99C104.089 15.9998 104.089 15.8998 103.99 15.8998C103.695 15.6998 103.695 15.2998 103.793 15.0998C103.99 14.7998 104.683 13.3998 104.683 13.3998H110.812C110.812 13.3998 111.503 14.6998 111.701 15.0998C111.997 15.6998 111.603 15.8998 111.503 15.8998C111.404 15.8998 111.404 15.9998 111.503 15.9998H114.469C114.568 15.8998 114.568 15.7998 114.469 15.6998C114.074 15.5998 113.678 15.1998 113.48 14.6998ZM124.372 10.3041C125.021 10.407 125.708 10.5158 126.134 10.7002C126.727 10.9002 127.221 11.4002 127.715 11.9002C128.111 12.6002 128.111 13.8002 127.616 14.5002C127.122 15.3002 126.33 15.8002 125.54 16.0002C124.353 16.3002 123.168 16.2002 121.982 15.9002C120.993 15.6002 120.103 15.4002 119.511 15.8002C119.411 15.9002 119.313 15.9002 119.313 15.7002C119.313 15.6104 119.293 15.1776 119.271 14.7009L119.271 14.6998L119.271 14.6992L119.271 14.6981C119.244 14.1141 119.214 13.4652 119.214 13.3002C119.214 13.2002 119.313 13.3002 119.313 13.3002C119.708 13.7002 120.796 14.5002 121.982 14.9002C122.97 15.2002 123.859 15.3002 125.045 15.0002C125.54 14.9002 126.034 14.4002 126.134 14.2002C126.33 13.8002 126.33 13.1002 126.034 12.8002L126.007 12.7729C125.806 12.5654 125.44 12.1871 123.267 11.9002C120.796 11.5002 120.203 10.9002 119.708 10.2002C119.114 9.3002 119.214 8.3002 119.609 7.6002C120.005 6.8002 120.697 6.4002 121.29 6.2002C122.08 5.9002 123.168 5.8002 124.453 6.0002C124.927 6.07387 125.279 6.1611 125.565 6.23192C126.056 6.35337 126.352 6.42653 126.727 6.3002C126.924 6.2002 127.022 6.2002 127.022 6.4002C127.122 6.7002 127.221 8.4002 127.221 8.5002C127.319 8.7002 127.221 8.7002 127.122 8.6002C127.056 8.55546 126.964 8.47568 126.848 8.37431L126.848 8.37408L126.848 8.37404C126.446 8.02223 125.746 7.41063 124.75 7.1002C123.761 6.8002 123.068 6.9002 122.476 7.0002C121.784 7.1002 121.388 7.5002 121.191 7.8002C120.796 8.4002 120.894 9.0002 121.29 9.4002C121.685 9.8002 122.476 10.0002 123.267 10.1002C123.571 10.1773 123.964 10.2395 124.372 10.3041ZM6.32752 14.2695C6.57267 14.3655 7.29626 14.3655 8.36187 14.3655C9.42748 14.3655 9.93063 14.4275 10.5465 14.6315C11.4574 14.9336 12.4246 15.901 12.6859 16.1623L12.7212 16.1975C12.9149 16.3905 13.1087 16.3905 13.1087 16.1975V9.0765C13.1087 8.3335 12.2289 7.4025 11.708 6.9555C11.0842 6.4195 10.1689 6.2745 9.24362 6.2745C8.31837 6.2745 7.85674 6.2215 7.58688 6.1715C7.52285 6.15953 7.46845 6.14743 7.42175 6.13704L7.42174 6.13704C7.28894 6.1075 7.21843 6.09181 7.16578 6.1325C7.1134 6.17206 7.10839 6.28198 7.10368 6.38507V6.38508C7.10173 6.42792 7.09983 6.46957 7.0946 6.5045L7.0723 6.65792C6.92089 7.69918 6.07993 13.4828 6.0369 13.7875C5.99044 14.1155 6.17727 14.2105 6.32752 14.2695ZM18.2645 14.3655C19.3301 14.3655 20.0537 14.3655 20.2989 14.2695C20.4491 14.2105 20.6359 14.1155 20.5895 13.7875C20.5462 13.4806 19.6936 7.61747 19.551 6.63663L19.5318 6.5045C19.5266 6.46957 19.5247 6.42791 19.5227 6.38507C19.518 6.28199 19.513 6.17206 19.4606 6.1325C19.4086 6.09177 19.3377 6.10753 19.2044 6.13713C19.1577 6.1475 19.1034 6.15957 19.0395 6.1715C18.7706 6.2215 18.308 6.2745 17.3838 6.2745C16.4575 6.2745 15.5422 6.4195 14.9184 6.9555C14.3975 7.4025 13.5187 8.3335 13.5187 9.0765V16.1975C13.5187 16.3905 13.7115 16.3905 13.9052 16.1975C13.9149 16.1879 13.9267 16.1761 13.9405 16.1623C14.2018 15.901 15.1689 14.9336 16.0799 14.6315C16.6958 14.4275 17.1989 14.3655 18.2645 14.3655Z" fill="white"/>
</svg>
