<svg width="205" height="33" viewBox="0 0 205 33" fill="none" xmlns="http://www.w3.org/2000/svg">
    <g clip-path="url(#clip0_417_686)">
        <path d="M62.5111 4.64079C62.9502 5.12377 63.629 5.52275 64.4773 5.52275C65.196 5.52275 65.5553 5.16577 65.5553 4.78778C65.5553 4.3048 65.0163 4.13681 64.3077 3.95832C63.2996 3.71683 62.002 3.42284 62.002 1.96341C62.002 0.88196 62.8904 0 64.3476 0C65.3357 0 66.1442 0.314986 66.763 0.902959L66.0344 1.92141C65.5353 1.43843 64.8666 1.20745 64.2677 1.20745C63.6689 1.20745 63.3595 1.48043 63.3595 1.86891C63.3595 2.3099 63.8785 2.44639 64.5971 2.62488C65.6152 2.86637 66.9127 3.19185 66.9127 4.63029C66.9127 5.81674 66.1042 6.71969 64.4374 6.71969C63.2497 6.71969 62.4013 6.29971 61.8124 5.69074L62.531 4.64079H62.5111Z" fill="white"/>
        <path d="M70.2663 3.37035C70.2663 1.37544 71.7036 0 73.5102 0C74.9175 0 75.706 0.776965 76.1451 1.58543L75.0173 2.1734C74.7578 1.64842 74.1988 1.22844 73.5102 1.22844C72.4322 1.22844 71.6138 2.1314 71.6138 3.35985C71.6138 4.58829 72.4322 5.50175 73.5102 5.50175C74.1988 5.50175 74.7578 5.09227 75.0173 4.55679L76.1451 5.13427C75.696 5.94273 74.9175 6.73019 73.5102 6.73019C71.7036 6.73019 70.2663 5.36526 70.2663 3.35985V3.37035Z" fill="white"/>
        <path d="M83.9503 3.88475H81.0259V6.61462H79.7084V0.104919H81.0259V2.6668H83.9503V0.104919H85.2778V6.61462H83.9503V3.88475Z" fill="white"/>
        <path d="M92.2046 0C94.081 0 95.4384 1.40694 95.4384 3.37035C95.4384 5.33376 94.071 6.74069 92.2046 6.74069C90.3381 6.74069 88.9807 5.33376 88.9807 3.37035C88.9807 1.40694 90.3481 0 92.2046 0ZM92.2046 1.22844C91.0667 1.22844 90.3281 2.1419 90.3281 3.35985C90.3281 4.57779 91.0568 5.50175 92.2046 5.50175C93.3524 5.50175 94.091 4.57779 94.091 3.35985C94.091 2.1419 93.3524 1.22844 92.2046 1.22844Z" fill="white"/>
        <path d="M99.1514 0.104919H100.469V5.39668H103.084V6.61462H99.1514V0.104919Z" fill="white"/>
        <path d="M110.729 5.49117H107.965L107.575 6.61462H106.128L108.524 0.104919H110.17L112.556 6.61462H111.119L110.729 5.49117ZM108.314 4.29423H110.36L109.342 1.31236L108.314 4.29423Z" fill="white"/>
        <path d="M116.139 4.64079C116.578 5.12377 117.257 5.52275 118.105 5.52275C118.824 5.52275 119.183 5.16577 119.183 4.78778C119.183 4.3048 118.644 4.13681 117.936 3.95832C116.928 3.71683 115.63 3.42284 115.63 1.96341C115.63 0.88196 116.518 0 117.976 0C118.954 0 119.772 0.314986 120.391 0.902959L119.662 1.92141C119.163 1.43843 118.495 1.20745 117.896 1.20745C117.297 1.20745 116.987 1.48043 116.987 1.86891C116.987 2.3099 117.506 2.44639 118.225 2.62488C119.243 2.86637 120.541 3.19185 120.541 4.63029C120.541 5.81674 119.732 6.71969 118.065 6.71969C116.878 6.71969 116.029 6.29971 115.44 5.69074L116.159 4.64079H116.139Z" fill="white"/>
        <path d="M125.551 1.32286H123.745V0.104919H128.675V1.32286H126.879V6.61462H125.551V1.32286Z" fill="white"/>
        <path d="M132.308 0.104919H133.626V6.61462H132.308V0.104919Z" fill="white"/>
        <path d="M137.329 3.37035C137.329 1.37544 138.766 0 140.573 0C141.98 0 142.768 0.776965 143.208 1.58543L142.08 2.1734C141.82 1.64842 141.261 1.22844 140.573 1.22844C139.495 1.22844 138.676 2.1314 138.676 3.35985C138.676 4.58829 139.495 5.50175 140.573 5.50175C141.261 5.50175 141.82 5.09227 142.08 4.55679L143.208 5.13427C142.758 5.94273 141.98 6.73019 140.573 6.73019C138.766 6.73019 137.329 5.36526 137.329 3.35985V3.37035Z" fill="white"/>
        <path d="M14.2529 32.1599L10.6497 24.7578H6.84698V32.1599H5.16019V15.4867H11.2386C14.0034 15.4867 15.9397 17.2401 15.9397 20.1275C15.9397 22.5634 14.5423 24.1593 12.4863 24.6003L16.2491 32.1599H14.2729H14.2529ZM11.0689 17.0826H6.84698V23.1934H11.0789C12.9254 23.1934 14.2429 22.1854 14.2429 20.1485C14.2429 18.1116 12.9254 17.0826 11.0789 17.0826H11.0689Z" fill="white"/>
        <path d="M20.4611 32.16V15.4867H30.3024V17.0826H22.1579V22.9624H29.1046V24.5583H22.1579V30.5745H30.3024V32.1705H20.4611V32.16Z" fill="white"/>
        <path d="M43.7667 32.1599L42.4991 28.3906H35.5723L34.3047 32.1599H32.4982L38.3271 15.4867H39.7544L45.5633 32.1599H43.7567H43.7667ZM39.0657 18.0381L36.0814 26.8367H42.0001L39.0657 18.0381Z" fill="white"/>
        <path d="M58.4288 30.4065C57.3609 31.6245 56.0434 32.1599 54.2668 32.1599H48.8371V15.4867H54.2668C56.0434 15.4867 57.3609 16.0222 58.4288 17.2401C59.8262 18.8361 59.8262 21.2719 59.8262 23.8233C59.8262 26.3747 59.8262 28.8106 58.4288 30.4065ZM57.0914 18.3006C56.2929 17.3661 55.175 17.0826 53.9773 17.0826H50.5239V30.564H53.9773C55.175 30.564 56.2929 30.2805 57.0914 29.3461C58.1194 28.2016 58.1394 26.1437 58.1394 23.8233C58.1394 21.5029 58.1194 19.445 57.0914 18.3006Z" fill="white"/>
        <path d="M64.5273 32.1599V15.4867H66.214V32.1599H64.5273Z" fill="white"/>
        <path d="M81.6147 32.1599L73.2007 18.7941V32.1599H71.5139V15.4867H73.1209L81.5349 28.8106V15.4867H83.2217V32.1599H81.6147Z" fill="white"/>
        <path d="M97.6842 30.3856C96.5763 31.6771 95.0791 32.307 93.4522 32.307C91.8253 32.307 90.4679 31.6981 89.4898 30.6691C88.0026 29.1047 87.9128 27.6453 87.9128 23.8339C87.9128 20.0226 88.0026 18.5632 89.4898 16.9987C90.4679 15.9698 91.8053 15.3608 93.4522 15.3608C96.4365 15.3608 98.5525 17.4712 98.9917 20.3481H97.3049C96.8557 18.2167 95.4384 16.9567 93.4522 16.9567C92.3643 16.9567 91.4261 17.3557 90.7174 18.1222C89.7193 19.2036 89.5995 20.4216 89.5995 23.8339C89.5995 27.2463 89.7093 28.4747 90.7174 29.5457C91.4261 30.3226 92.3643 30.7111 93.4522 30.7111C94.61 30.7111 95.7179 30.2176 96.4565 29.2832C97.1053 28.4432 97.3448 27.5298 97.3448 26.2593V24.9679H93.4522V23.4454H99.0416V26.0913C99.0416 28.0127 98.7122 29.1782 97.6842 30.3751V30.3856Z" fill="white"/>
        <path d="M116.429 31.4671V23.7814L113.225 29.4407L110.021 23.7814V31.4671H106.448V16.1798C108.593 16.1798 110.56 17.4502 111.538 19.4556L113.215 22.9205L114.891 19.4556C115.87 17.4397 117.836 16.1798 119.982 16.1798H119.992V31.4671H116.419H116.429Z" fill="white"/>
        <path d="M123.445 28.5797V16.1798H133.326V19.5291H127.018V22.0805H132.408V25.4298H127.018V28.1177H133.326V31.4671H126.19C124.673 31.4671 123.445 30.1756 123.445 28.5797Z" fill="white"/>
        <path d="M144.485 31.4671L143.816 29.1887H139.345L138.626 31.4671H134.893L140.183 16.1798H142.938L148.228 31.4671H144.495H144.485ZM141.651 21.9755L140.343 26.0598H142.878L141.651 21.9755Z" fill="white"/>
        <path d="M154.346 31.5931C152.121 31.5931 150.304 31.1626 148.837 29.5772L151.123 27.1728C151.881 27.9707 153.209 28.2437 154.366 28.2437C155.774 28.2437 156.452 27.7502 156.452 26.8683C156.452 26.5008 156.373 26.2068 156.163 25.9653C155.983 25.7763 155.674 25.6188 155.205 25.5558L153.448 25.2934C152.161 25.1044 151.182 24.6529 150.534 23.9389C149.865 23.2039 149.536 22.175 149.536 20.8731C149.536 18.0802 151.532 16.0433 154.845 16.0433C156.931 16.0433 158.498 16.5578 159.746 17.8702L157.5 20.2326C156.742 19.4346 155.913 19.3296 154.746 19.3296C153.498 19.3296 152.989 20.0856 152.989 20.7471C152.989 20.9361 153.049 21.2195 153.278 21.4505C153.458 21.6395 153.767 21.839 154.277 21.902L156.033 22.1645C157.341 22.3535 158.279 22.784 158.888 23.4349C159.666 24.2329 159.966 25.3669 159.966 26.7843C159.966 29.8921 157.411 31.5931 154.356 31.5931H154.346Z" fill="white"/>
        <path d="M168.06 31.5931C165.036 31.5931 162.571 29.4512 162.571 26.1018V16.1798H166.144V26.0178C166.144 27.4353 166.883 28.2542 168.06 28.2542C169.238 28.2542 170.017 27.4353 170.017 26.0178V16.1798H173.59V26.1018C173.59 29.4512 171.085 31.5931 168.06 31.5931Z" fill="white"/>
        <path d="M184.14 31.4671L181.565 25.7763H180.357V31.4671H176.784V16.1798H182.543C185.767 16.1798 187.503 18.5842 187.503 21.0935C187.503 23.1724 186.276 24.4849 185.138 25.0834L188.282 31.4566H184.14V31.4671ZM182.383 19.5501H180.367V22.637H182.383C183.361 22.637 183.93 21.881 183.93 21.0935C183.93 20.3061 183.361 19.5501 182.383 19.5501Z" fill="white"/>
        <path d="M190.617 28.5797V16.1798H200.499V19.5291H194.191V22.0805H199.58V25.4298H194.191V28.1177H200.499V31.4671H193.362C191.845 31.4671 190.617 30.1756 190.617 28.5797Z" fill="white"/>
        <path d="M116.429 31.4671H120.002V30.0391C118.754 30.0391 117.556 30.0391 116.429 30.0181V31.4566V31.4671Z" fill="white"/>
        <path d="M106.448 31.4671H110.021V29.9131C108.603 29.8816 107.406 29.8396 106.448 29.8082V31.4671Z" fill="white"/>
        <path d="M126.19 31.4671H133.326V29.8711C129.933 29.9656 126.749 30.0076 123.824 30.0286C124.304 30.8896 125.182 31.4671 126.19 31.4671Z" fill="white"/>
        <path d="M144.485 31.4671H148.218L147.469 29.2937C146.262 29.3567 145.074 29.4197 143.896 29.4827L144.485 31.4671Z" fill="white"/>
        <path d="M134.893 31.4671H138.626L139.185 29.6822C137.918 29.7347 136.68 29.7767 135.462 29.8082L134.893 31.4671Z" fill="white"/>
        <path d="M148.837 29.5772C150.304 31.1626 152.121 31.5931 154.346 31.5931C156.812 31.5931 158.938 30.4906 159.676 28.4432C156.093 28.7372 152.59 28.9892 149.196 29.1887L148.837 29.5667V29.5772Z" fill="white"/>
        <path d="M168.06 28.2437C167.541 28.2437 167.112 28.0862 166.793 27.7922C165.495 27.9182 164.208 28.0442 162.93 28.1597C163.719 30.3016 165.725 31.5826 168.06 31.5826C170.775 31.5826 173.081 29.8397 173.52 27.0573C172.212 27.2148 170.905 27.3618 169.607 27.4983C169.268 27.9812 168.729 28.2437 168.06 28.2437Z" fill="white"/>
        <path d="M184.14 31.4671H188.282L185.327 25.4823C184.11 25.6713 182.892 25.8498 181.674 26.0178L184.14 31.4671Z" fill="white"/>
        <path d="M176.794 31.4671H180.367V26.1963C179.169 26.3643 177.981 26.5113 176.794 26.6688V31.4671Z" fill="white"/>
        <path d="M194.181 25.4403H199.57V22.994C196.586 23.5924 193.602 24.1384 190.607 24.6424V28.5902C190.607 30.1861 191.835 31.4776 193.352 31.4776H200.489V28.1282H194.181V25.4403Z" fill="white"/>
    </g>
    <defs>
        <clipPath id="clip0_417_686">
            <rect width="205" height="33" fill="white"/>
        </clipPath>
    </defs>
</svg>
