<svg width="20" height="20" viewBox="0 0 20 20" fill="none" xmlns="http://www.w3.org/2000/svg">
<path fill-rule="evenodd" clip-rule="evenodd" d="M1.07572 6.03342H18.927V4.04995H1.07572V6.03342ZM16.3732 18.926H3.62944L2.37093 7.02516H17.6318L16.3732 18.926ZM10.0013 1.07474C11.1986 1.07474 12.2003 1.92788 12.4306 3.05821H7.57208C7.80241 1.92788 8.80407 1.07474 10.0013 1.07474ZM19.4228 3.05821H13.433C13.1908 1.37896 11.7465 0.0830078 10.0013 0.0830078C8.25613 0.0830078 6.81192 1.37896 6.56969 3.05821H0.579852C0.306133 3.05821 0.0839844 3.28036 0.0839844 3.55408V6.52929C0.0839844 6.80301 0.306133 7.02516 0.579852 7.02516H1.37324L2.69002 19.4739C2.71679 19.7263 2.92952 19.9177 3.18316 19.9177H16.8195C17.0732 19.9177 17.2859 19.7263 17.3127 19.4739L18.6294 7.02516H19.4228C19.6965 7.02516 19.9187 6.80301 19.9187 6.52929V3.55408C19.9187 3.28036 19.6965 3.05821 19.4228 3.05821ZM13.5736 17.4366C13.588 17.4378 13.6019 17.4383 13.616 17.4383C13.8709 17.4383 14.0876 17.2429 14.1097 16.9843L14.7813 9.05046C14.8044 8.77748 14.6018 8.53748 14.3291 8.51467C14.0556 8.49186 13.8163 8.69393 13.793 8.96665L13.1214 16.9005C13.0983 17.1735 13.3006 17.4135 13.5736 17.4366ZM6.38862 17.4384C6.40275 17.4384 6.41664 17.4379 6.43102 17.4366C6.70374 17.4133 6.90631 17.1736 6.88325 16.9006L6.20986 8.96673C6.1868 8.69375 5.94854 8.49168 5.67383 8.51449C5.4011 8.5378 5.19854 8.77755 5.2216 9.05053L5.89498 16.9844C5.91705 17.243 6.13374 17.4384 6.38862 17.4384ZM10.0026 17.4036C10.2763 17.4036 10.4984 17.1815 10.4984 16.9078L10.4974 9.11298C10.4974 8.83902 10.2755 8.61712 10.0016 8.61712C9.72784 8.61712 9.5057 8.83926 9.5057 9.11323L9.50669 16.9078C9.50669 17.1817 9.72884 17.4036 10.0026 17.4036Z" fill="#333333"/>
</svg>
