<svg width="32" height="32" viewBox="0 0 32 32" fill="none" xmlns="http://www.w3.org/2000/svg">
<path d="M19.904 28H12.0949C11.4784 28 10.7134 27.6835 10.2754 27.2469L4.75306 21.7246C4.31645 21.2897 4 20.5231 4 19.9051V12.0947C4 11.4782 4.31646 10.7116 4.75306 10.2752L10.2754 4.75461C10.7132 4.318 11.4784 4 12.0949 4H19.904C20.5205 4 21.287 4.31801 21.7235 4.75443L27.2458 10.275C27.6823 10.7115 28.0003 11.478 28.0003 12.0945V19.9049C28.0003 20.523 27.6823 21.2893 27.2458 21.7244L21.7235 27.245C21.287 27.6832 20.5205 27.9996 19.904 27.9996V28ZM12.0949 5.76517C11.9456 5.76517 11.6291 5.89568 11.5219 6.0022L6.00131 11.5228C5.8941 11.63 5.76427 11.9451 5.76427 12.0943V19.9047C5.76427 20.0554 5.89478 20.3705 6.00131 20.4761L11.5237 25.9985C11.6295 26.1043 11.9459 26.2355 12.0951 26.2355H19.9042C20.0549 26.2355 20.37 26.1035 20.4772 25.9971L25.9978 20.4765C26.105 20.3707 26.2348 20.0558 26.2348 19.9051V12.0946C26.2348 11.9453 26.1043 11.6304 25.9994 11.5246L20.477 6.00224C20.3698 5.89503 20.0547 5.7652 19.904 5.7652L12.0949 5.76517Z" fill="white"/>
<rect x="15.0366" y="10.2324" width="1.5" height="6.46029" rx="0.75" fill="white"/>
<path fill-rule="evenodd" clip-rule="evenodd" d="M16.0008 18.5396C15.2021 18.5396 14.5547 19.1593 14.5547 19.9239C14.5547 20.6885 15.2021 21.3082 16.0008 21.3082C16.7995 21.3082 17.447 20.6885 17.447 19.9239C17.447 19.1593 16.7995 18.5396 16.0008 18.5396Z" fill="white"/>
</svg>
