<svg width="22" height="22" viewBox="0 0 22 22" fill="none" xmlns="http://www.w3.org/2000/svg">
<path fill-rule="evenodd" clip-rule="evenodd" d="M6.53853 2.07572C7.63217 2.07572 8.522 2.96555 8.522 4.05919C8.522 5.15283 7.63217 6.04266 6.53853 6.04266C5.44489 6.04266 4.55506 5.15283 4.55506 4.05919C4.55506 2.96555 5.44489 2.07572 6.53853 2.07572ZM1.57985 4.55506H3.6082C3.84522 5.95985 5.06704 7.0344 6.53853 7.0344C8.01002 7.0344 9.23184 5.95985 9.46886 4.55506H20.4228C20.6965 4.55506 20.9187 4.33291 20.9187 4.05919C20.9187 3.78547 20.6965 3.56332 20.4228 3.56332H9.46886C9.23184 2.15853 8.01002 1.08398 6.53853 1.08398C5.06704 1.08398 3.84522 2.15853 3.6082 3.56332H1.57985C1.30613 3.56332 1.08398 3.78547 1.08398 4.05919C1.08398 4.33291 1.30613 4.55506 1.57985 4.55506ZM8.76993 19.927C7.6763 19.927 6.78646 19.0371 6.78646 17.9435C6.78646 16.8499 7.6763 15.96 8.76993 15.96C9.86357 15.96 10.7534 16.8499 10.7534 17.9435C10.7534 19.0371 9.86357 19.927 8.76993 19.927ZM20.4228 17.4476H11.7003C11.4632 16.0428 10.2414 14.9683 8.76994 14.9683C7.29845 14.9683 6.07663 16.0428 5.8396 17.4476H1.57985C1.30613 17.4476 1.08398 17.6698 1.08398 17.9435C1.08398 18.2172 1.30613 18.4394 1.57985 18.4394H5.8396C6.07663 19.8442 7.29845 20.9187 8.76994 20.9187C10.2414 20.9187 11.4632 19.8442 11.7003 18.4394H20.4228C20.6965 18.4394 20.9187 18.2172 20.9187 17.9435C20.9187 17.6698 20.6965 17.4476 20.4228 17.4476ZM15.4641 12.9848C14.3705 12.9848 13.4807 12.095 13.4807 11.0013C13.4807 9.9077 14.3705 9.01787 15.4641 9.01787C16.5578 9.01787 17.4476 9.9077 17.4476 11.0013C17.4476 12.095 16.5578 12.9848 15.4641 12.9848ZM20.4228 10.5055H18.3945C18.1575 9.10068 16.9356 8.02613 15.4642 8.02613C13.9927 8.02613 12.7708 9.10068 12.5338 10.5055H1.57985C1.30613 10.5055 1.08398 10.7276 1.08398 11.0013C1.08398 11.2751 1.30613 11.4972 1.57985 11.4972H12.5338C12.7708 12.902 13.9927 13.9765 15.4642 13.9765C16.9356 13.9765 18.1575 12.902 18.3945 11.4972H20.4228C20.6965 11.4972 20.9187 11.2751 20.9187 11.0013C20.9187 10.7276 20.6965 10.5055 20.4228 10.5055Z" fill="#333333"/>
</svg>
