<svg width="36" height="36" viewBox="0 0 36 36" fill="none" xmlns="http://www.w3.org/2000/svg">
<path fill-rule="evenodd" clip-rule="evenodd" d="M27.576 31.1649C27.8297 30.9815 28.1636 30.9507 28.4464 31.0848L33.375 33.3751L31.0847 28.4465C30.9506 28.1637 30.9814 27.8294 31.1653 27.5757C33.1247 24.8868 34.2857 21.5847 34.2857 18.0001C34.2857 8.99537 27.0047 1.71437 18 1.71437C8.99527 1.71437 1.71428 8.99537 1.71428 18.0001C1.71428 27.0044 8.99527 34.2858 18 34.2858C21.5846 34.2858 24.8867 33.1248 27.576 31.1649ZM36 18C36 21.7689 34.8094 25.2459 32.826 28.1383L35.9194 34.7811C36.1187 35.2106 35.9323 35.7201 35.5029 35.9194C35.274 36.0257 35.01 36.0257 34.7811 35.9194L28.1383 32.8256C25.248 34.8039 21.7633 36 18 36C8.06914 36 0 27.9309 0 18C0 8.06871 8.06914 0 18 0C27.9309 0 36 8.06871 36 18ZM23.317 18.0267C22.573 19.0283 21.7184 20.2861 21.5088 22.2858H18.8573V15.7098C19.8503 15.3524 20.5715 14.3945 20.5715 13.2854C20.5715 11.8754 19.4101 10.7144 18.0001 10.7144C16.5901 10.7144 15.4287 11.8754 15.4287 13.2854C15.4287 14.3945 16.15 15.3524 17.143 15.7098V22.2858H14.491C14.2818 20.2861 13.4273 19.0283 12.6833 18.0267L12.6465 17.9772C11.8128 16.8559 11.143 15.955 11.143 13.6471C11.143 9.89198 14.1974 6.85726 18.0001 6.85726C21.8028 6.85726 24.8573 9.89198 24.8573 13.6471C24.8573 15.954 24.1876 16.8551 23.3548 17.9758L23.317 18.0267ZM18.0001 14.1426C17.5163 14.1426 17.143 13.7693 17.143 13.2854C17.143 12.802 17.5163 12.4283 18.0001 12.4283C18.4835 12.4283 18.8573 12.802 18.8573 13.2854C18.8573 13.7693 18.4835 14.1426 18.0001 14.1426ZM18.0001 5.14286C13.279 5.14286 9.42869 8.95714 9.42869 13.647C9.42869 16.3753 10.453 17.8821 11.317 19.0444C11.3581 19.0997 11.3987 19.1542 11.4389 19.208L11.4393 19.2085C12.244 20.286 12.8573 21.1072 12.8573 23.1429C12.8573 23.616 13.2408 24 13.7144 24H22.2858C22.759 24 23.143 23.616 23.143 23.1429C23.143 21.1072 23.7562 20.286 24.5609 19.2085L24.5613 19.208C24.6015 19.1542 24.6422 19.0997 24.6833 19.0444C25.5468 17.8821 26.5715 16.3753 26.5715 13.647C26.5715 8.95714 22.7208 5.14286 18.0001 5.14286ZM21.6431 25.7142C21.6696 25.713 21.6966 25.713 21.7232 25.7142C22.1963 25.7365 22.5623 26.1381 22.5401 26.6117C22.5178 27.0848 22.1162 27.4508 21.6431 27.4285H14.3573C13.8838 27.4354 13.4946 27.057 13.4878 26.5834C13.4813 26.1102 13.8593 25.7211 14.3329 25.7142H14.3573H21.6431ZM19.9288 29.1427C19.9554 29.1414 19.9824 29.1414 20.0089 29.1427C20.4821 29.165 20.8481 29.5666 20.8258 30.0402C20.8035 30.5133 20.4019 30.8793 19.9288 30.857H16.0712C15.5981 30.8639 15.2089 30.4854 15.2021 30.0119C15.1957 29.5387 15.5737 29.1496 16.0472 29.1427H16.0712H19.9288Z" fill="white"/>
</svg>
