<svg width="32" height="32" viewBox="0 0 32 32" fill="none" xmlns="http://www.w3.org/2000/svg">
<path fill-rule="evenodd" clip-rule="evenodd" d="M16 4C19.2444 4 22.1881 5.28754 24.3479 7.37952L23.092 8.55016C21.2467 6.79295 18.7493 5.71429 16 5.71429C10.3194 5.71429 5.71429 10.3194 5.71429 16C5.71429 21.6806 10.3194 26.2857 16 26.2857C21.6806 26.2857 26.2857 21.6806 26.2857 16C26.2857 14.9619 26.1319 13.9597 25.8459 13.0149L27.2193 11.7332C27.7238 13.0589 28 14.4972 28 16C28 22.6274 22.6274 28 16 28C9.37258 28 4 22.6274 4 16C4 9.37258 9.37258 4 16 4ZM27.7616 7.56089C28.0625 7.86217 28.078 8.32877 27.8133 8.64699L27.7413 8.72327L14.6121 20.9654L9.1666 14.732C8.86373 14.3853 8.9086 13.8666 9.26682 13.5735C9.59748 13.3029 10.0796 13.3191 10.39 13.5959L10.4638 13.6705L14.7364 18.5614L26.5605 7.54132C26.8978 7.22575 27.4355 7.23451 27.7616 7.56089Z" fill="white"/>
</svg>
