<svg width="32" height="32" viewBox="0 0 32 32" fill="none" xmlns="http://www.w3.org/2000/svg">
<path fill-rule="evenodd" clip-rule="evenodd" d="M4.85932 25.5H27.1407C27.4438 25.5008 27.7247 25.3507 27.8796 25.1052C28.0345 24.8597 28.0403 24.5554 27.8948 24.3048L16.7541 4.92398C16.6045 4.6628 16.315 4.5 16 4.5C15.685 4.5 15.3955 4.6628 15.2459 4.92398L4.10518 24.3048C3.9597 24.5554 3.96548 24.8597 4.12037 25.1052C4.27527 25.3507 4.55624 25.5008 4.85932 25.5ZM25.7012 23.8844H6.29932L16.0003 6.97459L25.7012 23.8844ZM15.1431 13.2461C15.1431 12.8779 15.4415 12.5795 15.8097 12.5795C16.1779 12.5795 16.4764 12.8779 16.4764 13.2461V17.5655C16.4764 17.9337 16.1779 18.2322 15.8097 18.2322C15.4415 18.2322 15.1431 17.9337 15.1431 17.5655V13.2461ZM14.7144 21.0595C14.7144 20.3905 15.2899 19.8482 15.9998 19.8482C16.7098 19.8482 17.2853 20.3905 17.2853 21.0595C17.2853 21.7285 16.7098 22.2708 15.9998 22.2708C15.2899 22.2708 14.7144 21.7285 14.7144 21.0595Z" fill="white"/>
</svg>
