<svg width="21" height="20" viewBox="0 0 21 20" fill="none" xmlns="http://www.w3.org/2000/svg">
<path fill-rule="evenodd" clip-rule="evenodd" d="M0.105328 19.624C0.240861 19.8578 0.486712 20.0007 0.751904 20H20.2481C20.5133 20.0007 20.7591 19.8578 20.8947 19.624C21.0302 19.3902 21.0353 19.1004 20.908 18.8618L11.1599 0.403788C11.029 0.155049 10.7756 0 10.5 0C10.2244 0 9.97103 0.155049 9.84013 0.403788L0.0920323 18.8618C-0.0352609 19.1004 -0.0302055 19.3902 0.105328 19.624ZM10.4994 2.35791L18.9877 18.4625H2.01105L10.4994 2.35791ZM9.75146 7.69385H11.2512V13.0774H9.75146V7.69385ZM9.37079 15.7703C9.37079 15.1332 9.87437 14.6167 10.4956 14.6167C11.1168 14.6167 11.6203 15.1332 11.6203 15.7703C11.6203 16.4074 11.1168 16.9239 10.4956 16.9239C9.87437 16.9239 9.37079 16.4074 9.37079 15.7703Z" fill="white"/>
</svg>
